<?xml version="1.0" standalone="no"?>
<!DOCTYPE svg PUBLIC "-//W3C//DTD SVG 1.1//EN" "http://www.w3.org/Graphics/SVG/1.1/DTD/svg11.dtd" >
<svg xmlns="http://www.w3.org/2000/svg">
<metadata>
This is a custom SVG webfont generated by Font Squirrel.
Copyright   : Copyright (c) 1989 Adobe Systems Incorporated.  All Rights Reserved.Avenir is a registered trademark of Linotype AG and/or its subsidiaries.
</metadata>
<defs>
<font id="webfont" horiz-adv-x="556" >
<font-face units-per-em="1000" ascent="800" descent="-200" />
<missing-glyph horiz-adv-x="278" />
<glyph unicode=" "  horiz-adv-x="278" />
<glyph unicode="&#x09;" horiz-adv-x="278" />
<glyph unicode="&#xa0;" horiz-adv-x="278" />
<glyph unicode="!" horiz-adv-x="278" d="M181 198h-84v510h84v-510zM199 54q0 -24 -18 -42t-42 -18t-42 17t-18 43q0 25 17.5 42.5t42.5 17.5t42.5 -17.5t17.5 -42.5z" />
<glyph unicode="&#x22;" horiz-adv-x="519" d="M150 708h72v-240h-72v240zM297 708h72v-240h-72v240z" />
<glyph unicode="#" d="M128 213h-98v66h108l20 152h-98v66h108l30 211h67l-30 -211h126l30 211h67l-30 -211h98v-66h-107l-21 -152h98v-66h-108l-30 -213h-67l30 213h-126l-30 -213h-67zM352 431h-126l-21 -152h126z" />
<glyph unicode="$" d="M256 -12q-67 0 -122.5 22.5t-91.5 70.5l70 61q22 -34 61 -55t83 -21v254q-90 24 -144 71.5t-54 131.5q0 82 57.5 136t140.5 61v66h48v-66q56 0 108 -21t86 -60l-66 -60q-47 63 -128 63v-249q131 -41 170.5 -87t39.5 -116q0 -88 -61 -145t-149 -57v-71h-48v71zM256 642 q-49 -9 -78.5 -41.5t-29.5 -78.5q0 -47 26 -70.5t82 -45.5v236zM304 66q51 6 85.5 39.5t34.5 80.5q0 50 -32 76.5t-88 44.5v-241z" />
<glyph unicode="%" horiz-adv-x="833" d="M213 720q74 0 124.5 -50.5t50.5 -124.5t-50.5 -124.5t-124.5 -50.5t-124.5 50.5t-50.5 124.5t50.5 124.5t124.5 50.5zM213 442q41 0 72 30t31 73q0 41 -31 72t-72 31t-72 -30t-31 -73q0 -41 31 -72t72 -31zM620 338q74 0 124.5 -50.5t50.5 -124.5t-50.5 -124.5 t-124.5 -50.5t-124.5 50.5t-50.5 124.5t50.5 124.5t124.5 50.5zM620 60q41 0 72 30t31 73q0 41 -31 72t-72 31t-72 -30t-31 -73q0 -41 31 -72t72 -31zM614 740l55 -32l-444 -740l-55 32z" />
<glyph unicode="&#x26;" horiz-adv-x="722" d="M497 102q-45 -57 -94.5 -85.5t-117.5 -28.5q-94 0 -159.5 55t-65.5 147q0 71 43 122t114 83q-42 42 -63.5 79.5t-21.5 84.5q0 76 52.5 119t130.5 43q76 0 126.5 -41t50.5 -116q0 -60 -42 -102.5t-108 -77.5l150 -159l95 159h95l-136 -218l162 -166h-115zM290 435 q75 41 96.5 67t21.5 64t-25.5 60.5t-64.5 22.5q-44 0 -73 -26t-29 -69q0 -26 12.5 -47t36.5 -46zM269 344q-74 -41 -99.5 -76t-25.5 -75q0 -56 40.5 -94.5t97.5 -38.5q38 0 74.5 18.5t89.5 79.5z" />
<glyph unicode="'" horiz-adv-x="278" d="M103 708h72v-240h-72v240z" />
<glyph unicode="(" horiz-adv-x="278" d="M201 -156q-72 99 -109 212.5t-37 231.5q0 123 37.5 235t108.5 209l54 -40q-63 -87 -95.5 -189.5t-32.5 -214.5q0 -119 29.5 -208t98.5 -198z" />
<glyph unicode=")" horiz-adv-x="278" d="M77 732q72 -99 109 -212.5t37 -231.5q0 -123 -37.5 -235t-108.5 -209l-54 40q63 87 95.5 189.5t32.5 214.5q0 119 -29.5 208t-98.5 198z" />
<glyph unicode="*" horiz-adv-x="444" d="M252 559l142 48l19 -58l-141 -48l89 -119l-49 -38l-90 123l-87 -123l-50 38l87 119l-141 48l19 58l142 -48v149h60v-149z" />
<glyph unicode="+" horiz-adv-x="666" d="M72 336h228v228h66v-228h228v-66h-228v-228h-66v228h-228v66z" />
<glyph unicode="," horiz-adv-x="278" d="M129 -138h-77l68 240h91z" />
<glyph unicode="-" horiz-adv-x="333" d="M44 276h245v-72h-245v72z" />
<glyph unicode="." horiz-adv-x="278" d="M199 54q0 -24 -18 -42t-42 -18t-42 17t-18 43q0 25 17.5 42.5t42.5 17.5t42.5 -17.5t17.5 -42.5z" />
<glyph unicode="/" horiz-adv-x="370" d="M66 -43l-63 25l301 768l63 -24z" />
<glyph unicode="0" d="M278 720q132 0 186 -108t54 -258t-53.5 -258t-186.5 -108q-132 0 -186 108t-54 258t53.5 258t186.5 108zM278 60q92 0 124 90.5t32 203.5q0 116 -31.5 205t-124.5 89q-92 0 -124 -90.5t-32 -203.5q0 -116 31.5 -205t124.5 -89z" />
<glyph unicode="1" d="M360 0h-84v600l-129 -107l-50 61l190 154h73v-708z" />
<glyph unicode="2" d="M50 96l267 260q57 55 78.5 89.5t21.5 82.5q0 54 -37 87t-92 33q-53 0 -88.5 -30.5t-45.5 -82.5l-91 8q14 85 74 131t148 46q93 0 154.5 -50t61.5 -142q0 -76 -33 -125.5t-105 -117.5l-218 -205l361 -2v-78h-456v96z" />
<glyph unicode="3" d="M204 408h26q89 0 125 33.5t36 89.5q0 53 -34 85t-87 32q-92 0 -130 -79l-81 31q25 59 80 89.5t125 30.5q91 0 151 -48.5t60 -136.5q0 -55 -34 -100.5t-87 -61.5q66 -12 105.5 -62t39.5 -118q0 -97 -66.5 -151t-167.5 -54q-84 0 -143 36t-85 113l85 28q18 -57 51 -81 t92 -24q62 0 103 39t41 100q0 71 -52.5 104t-126.5 33h-26v72z" />
<glyph unicode="4" d="M419 240h102v-78h-102v-162h-84v162h-300v93l281 453h103v-468zM335 610l-228 -370h228v370z" />
<glyph unicode="5" d="M474 630h-289l-3 -191q18 9 43 13t48 4q101 0 163.5 -65.5t62.5 -167.5q0 -105 -69 -170t-174 -65q-77 0 -128 33.5t-81 95.5l84 32q18 -41 53 -65t79 -24q66 0 109 45t43 118q0 75 -49 118t-126 43q-36 0 -72.5 -11.5t-71.5 -32.5l7 368h371v-78z" />
<glyph unicode="6" d="M204 413l2 -2q18 10 44.5 15.5t50.5 5.5q93 0 153.5 -61.5t60.5 -160.5q0 -102 -66.5 -162t-170.5 -60q-103 0 -170 60t-67 162q0 57 16.5 101t50.5 98l188 299h98zM125 210q0 -68 44 -109t109 -41t109 41t44 109t-44 109t-109 41t-109 -41t-44 -109z" />
<glyph unicode="7" d="M480 630l-283 -630h-95l288 630h-342v78h432v-78z" />
<glyph unicode="8" d="M278 720q87 0 144.5 -51.5t57.5 -133.5q0 -52 -32 -97t-84 -59q63 -15 101.5 -65.5t38.5 -118.5q0 -95 -64 -151t-162 -56q-97 0 -161.5 56.5t-64.5 150.5q0 68 38 118t102 64q-53 15 -84.5 60t-31.5 98q0 82 57.5 133.5t144.5 51.5zM278 414q52 0 85 33t33 84t-32 84 t-86 33q-52 0 -85 -33t-33 -84t32 -84t86 -33zM278 60q61 0 101.5 39.5t40.5 101.5t-40.5 101.5t-101.5 39.5t-101.5 -39.5t-40.5 -101.5t40.5 -101.5t101.5 -39.5z" />
<glyph unicode="9" d="M352 295l-2 2q-18 -10 -44.5 -15.5t-50.5 -5.5q-93 0 -153.5 61.5t-60.5 160.5q0 102 66.5 162t170.5 60q103 0 170 -60t67 -162q0 -57 -16.5 -101t-50.5 -98l-188 -299h-98zM431 498q0 68 -44 109t-109 41t-109 -41t-44 -109t44 -109t109 -41t109 41t44 109z" />
<glyph unicode=":" horiz-adv-x="278" d="M199 420q0 -24 -18 -42t-42 -18t-42 17t-18 43q0 25 17.5 42.5t42.5 17.5t42.5 -17.5t17.5 -42.5zM199 54q0 -24 -18 -42t-42 -18t-42 17t-18 43q0 25 17.5 42.5t42.5 17.5t42.5 -17.5t17.5 -42.5z" />
<glyph unicode=";" horiz-adv-x="278" d="M129 -138h-77l68 240h91zM199 420q0 -24 -18 -42t-42 -18t-42 17t-18 43q0 25 17.5 42.5t42.5 17.5t42.5 -17.5t17.5 -42.5z" />
<glyph unicode="&#x3c;" horiz-adv-x="666" d="M594 498l-441 -195l441 -195v-66l-522 232v58l522 232v-66z" />
<glyph unicode="=" horiz-adv-x="666" d="M72 414h522v-66h-522v66zM72 258h522v-66h-522v66z" />
<glyph unicode="&#x3e;" horiz-adv-x="666" d="M72 108l441 195l-441 195v66l522 -232v-58l-522 -232v66z" />
<glyph unicode="?" horiz-adv-x="482" d="M189 261q0 52 12.5 74.5t60 70.5t65.5 72.5t18 66.5q0 48 -28.5 78.5t-77.5 30.5t-81.5 -30t-40.5 -79l-90 10q13 80 71.5 125.5t141.5 45.5q84 0 139.5 -47.5t55.5 -130.5q0 -59 -27 -98t-73 -82t-54 -61.5t-8 -62.5v-46h-84v63zM291 54q0 -24 -18 -42t-42 -18t-42 17 t-18 43q0 25 17.5 42.5t42.5 17.5t42.5 -17.5t17.5 -42.5z" />
<glyph unicode="@" horiz-adv-x="800" d="M349 197q61 0 108 72t47 140q0 39 -24 66.5t-57 27.5q-67 0 -114 -69t-47 -141q0 -42 24 -69t63 -27zM535 267q-3 -10 -6 -25.5t-3 -24.5q0 -20 24 -20q50 0 95 68t45 150q0 113 -81.5 185t-190.5 72q-129 0 -218.5 -93.5t-89.5 -224.5q0 -133 91.5 -225.5t216.5 -92.5 q74 0 142.5 33t109.5 88h63q-48 -81 -132.5 -128t-182.5 -47q-158 0 -266 108t-108 264t109 264t265 108q140 0 239 -87t99 -219q0 -121 -77.5 -205t-156.5 -84q-28 0 -46 16.5t-18 49.5q-29 -32 -58 -49t-69 -17q-62 0 -101.5 44.5t-39.5 110.5q0 111 65.5 197t167.5 86 q37 0 66 -19.5t45 -62.5l20 63h65z" />
<glyph unicode="A" horiz-adv-x="704" d="M318 708h79l301 -708h-98l-72 174h-354l-73 -174h-95zM356 600l-149 -348h289z" />
<glyph unicode="B" horiz-adv-x="630" d="M88 708h216q99 0 167 -42t68 -132q0 -61 -32.5 -101.5t-91.5 -58.5q68 -8 114 -57.5t46 -118.5q0 -106 -80.5 -152t-195.5 -46h-211v708zM172 408h116q73 0 117 24t44 91q0 60 -42.5 83.5t-109.5 23.5h-125v-222zM172 78h142q71 0 121 30t50 93q0 68 -48.5 98.5 t-120.5 30.5h-144v-252z" />
<glyph unicode="C" horiz-adv-x="704" d="M584 562q-31 41 -77.5 63.5t-99.5 22.5q-115 0 -192.5 -87.5t-77.5 -206.5q0 -125 76 -209.5t194 -84.5q128 0 205 99l63 -53q-47 -63 -114 -93.5t-154 -30.5q-153 0 -256.5 105.5t-103.5 266.5q0 158 102 265t258 107q76 0 141.5 -27.5t108.5 -83.5z" />
<glyph unicode="D" horiz-adv-x="741" d="M75 708h272q127 0 237 -88.5t110 -265.5q0 -178 -109.5 -266t-237.5 -88h-272v708zM159 78h160q129 0 207 68.5t78 207.5q0 140 -77.5 208t-207.5 68h-160v-552z" />
<glyph unicode="E" horiz-adv-x="593" d="M88 708h445v-78h-361v-222h337v-78h-337v-252h379v-78h-463v708z" />
<glyph unicode="F" d="M88 708h439v-78h-355v-234h330v-78h-330v-318h-84v708z" />
<glyph unicode="G" horiz-adv-x="778" d="M690 48q-61 -34 -127.5 -50t-137.5 -16q-166 0 -272 103t-106 269q0 165 109 268.5t272 103.5q74 0 138 -22t112 -71l-63 -66q-36 39 -86.5 60t-106.5 21q-123 0 -204 -83t-81 -211q0 -127 81.5 -210.5t211.5 -83.5q47 0 91 10t85 31v217h-163v78h247v-348z" />
<glyph unicode="H" horiz-adv-x="722" d="M88 708h84v-300h378v300h84v-708h-84v330h-378v-330h-84v708z" />
<glyph unicode="I" horiz-adv-x="260" d="M88 708h84v-708h-84v708z" />
<glyph unicode="J" horiz-adv-x="482" d="M394 183q0 -82 -48.5 -141.5t-153.5 -59.5q-76 0 -126 39t-63 113l84 17q8 -42 35.5 -66.5t70.5 -24.5q65 0 91 42.5t26 109.5v496h84v-525z" />
<glyph unicode="K" horiz-adv-x="630" d="M88 708h84v-306h12l322 306h121l-350 -323l367 -385h-123l-337 360h-12v-360h-84v708z" />
<glyph unicode="L" horiz-adv-x="500" d="M88 708h84v-630h324v-78h-408v708z" />
<glyph unicode="M" horiz-adv-x="907" d="M88 708h125l240 -555l244 555h122v-708h-84v594l-256 -594h-51l-254 594l-2 -594h-84v708z" />
<glyph unicode="N" horiz-adv-x="778" d="M88 708h106l410 -588l2 588h84v-708h-106l-410 588l-2 -588h-84v708z" />
<glyph unicode="O" horiz-adv-x="834" d="M47 354q0 161 104.5 266.5t265.5 105.5q162 0 266 -105t104 -267q0 -161 -104.5 -266.5t-265.5 -105.5q-162 0 -266 105t-104 267zM697 354q0 125 -78.5 209.5t-201.5 84.5q-122 0 -201 -85t-79 -209q0 -125 78.5 -209.5t201.5 -84.5q122 0 201 85t79 209z" />
<glyph unicode="P" horiz-adv-x="593" d="M88 708h210q110 0 179 -45t69 -149q0 -105 -69.5 -150.5t-162.5 -45.5h-142v-318h-84v708zM172 396h142q66 0 104 29.5t38 87.5t-38.5 87.5t-103.5 29.5h-142v-234z" />
<glyph unicode="Q" horiz-adv-x="834" d="M822 0h-411q-156 0 -260 104t-104 259q0 154 104.5 258.5t259.5 104.5q156 0 260 -104t104 -259q0 -93 -46.5 -174.5t-125.5 -114.5l219 -2v-72zM411 78q116 0 195 82t79 203t-77.5 203t-196.5 82t-196.5 -82t-77.5 -203q0 -120 78.5 -202.5t195.5 -82.5z" />
<glyph unicode="R" horiz-adv-x="611" d="M88 708h181q166 0 224 -51.5t58 -143.5q0 -77 -46.5 -125.5t-130.5 -61.5l201 -326h-103l-192 318h-108v-318h-84v708zM172 396h75q101 0 157.5 19.5t56.5 97.5q0 70 -46.5 93.5t-124.5 23.5h-118v-234z" />
<glyph unicode="S" d="M424 583q-20 32 -55 48.5t-74 16.5q-61 0 -106 -30t-45 -89q0 -48 31.5 -75.5t127 -58t149 -72t53.5 -134.5q0 -100 -72.5 -153.5t-176.5 -53.5q-68 0 -125.5 23.5t-92.5 74.5l72 59q22 -38 63 -58.5t88 -20.5q60 0 107 33t47 90q0 60 -35.5 83t-136 56.5t-145 75.5 t-44.5 124q0 97 70.5 150.5t170.5 53.5q63 0 111 -19t87 -64z" />
<glyph unicode="T" horiz-adv-x="574" d="M563 630h-234v-630h-84v630h-234v78h552v-78z" />
<glyph unicode="U" horiz-adv-x="704" d="M619 270q0 -127 -64.5 -207.5t-202.5 -80.5q-137 0 -202 81t-65 207v438h84v-426q0 -98 42 -160t141 -62q97 0 140 62.5t43 159.5v426h84v-438z" />
<glyph unicode="V" horiz-adv-x="611" d="M-9 708h95l218 -582l227 582h89l-277 -708h-81z" />
<glyph unicode="W" horiz-adv-x="963" d="M6 708h93l161 -588l176 588h94l173 -588l166 588h88l-208 -708h-91l-175 600l-178 -600h-92z" />
<glyph unicode="X" horiz-adv-x="630" d="M255 373l-238 335h108l191 -277l189 277h105l-238 -335l261 -373h-111l-210 314l-211 -314h-104z" />
<glyph unicode="Y" horiz-adv-x="594" d="M255 305l-264 403h107l199 -320l205 320h101l-264 -403v-305h-84v305z" />
<glyph unicode="Z" horiz-adv-x="574" d="M29 75l409 555h-403v78h505v-72l-409 -558h414v-78h-516v75z" />
<glyph unicode="[" horiz-adv-x="259" d="M193 672h-93v-768h93v-60h-165v888h165v-60z" />
<glyph unicode="\" horiz-adv-x="370" d="M3 726l63 24l301 -768l-63 -25z" />
<glyph unicode="]" horiz-adv-x="259" d="M66 732h165v-888h-165v60h93v768h-93v60z" />
<glyph unicode="^" horiz-adv-x="666" d="M303 708h60l223 -433h-74l-179 349l-179 -349h-74z" />
<glyph unicode="_" horiz-adv-x="500" d="M0 -75h500v-50h-500v50z" />
<glyph unicode="`" horiz-adv-x="240" d="M189 564h-71l-143 144h110z" />
<glyph unicode="a" horiz-adv-x="519" d="M68 408q35 35 84.5 53.5t101.5 18.5q103 0 149.5 -48.5t46.5 -149.5v-201q0 -39 7 -81h-75q-3 11 -4 32.5t-1 37.5q-27 -39 -65.5 -60.5t-90.5 -21.5q-75 0 -124.5 36.5t-49.5 102.5q0 102 85 133t210 31h30v14q0 51 -30 77t-86 26q-40 0 -75.5 -12.5t-63.5 -38.5z M294 225q-78 0 -120.5 -21.5t-42.5 -68.5q0 -42 28 -61.5t75 -19.5q65 0 101.5 40.5t36.5 100.5v30h-78z" />
<glyph unicode="b" horiz-adv-x="611" d="M70 756h78v-356q35 39 77 59.5t93 20.5q110 0 178 -69t68 -177q0 -104 -68 -175t-166 -71q-62 0 -109.5 26t-70.5 69l-2 -83h-78v756zM314 60q74 0 120 49t46 125q0 75 -45.5 124.5t-120.5 49.5q-74 0 -120 -49t-46 -125q0 -75 45.5 -124.5t120.5 -49.5z" />
<glyph unicode="c" horiz-adv-x="482" d="M407 351q-47 57 -118 57q-75 0 -116.5 -49.5t-41.5 -124.5q0 -74 44 -124t114 -50q77 0 119 58l58 -55q-33 -38 -78.5 -56.5t-98.5 -18.5q-108 0 -175 69t-67 177q0 107 67.5 176.5t174.5 69.5q55 0 99.5 -17.5t80.5 -56.5z" />
<glyph unicode="d" horiz-adv-x="611" d="M463 83q-24 -41 -73 -68t-109 -27q-99 0 -166.5 70.5t-67.5 175.5q0 107 68.5 176.5t177.5 69.5q50 0 92.5 -20.5t75.5 -59.5l2 356h78v-756h-78v83zM297 408q-74 0 -120 -49t-46 -125q0 -75 45.5 -124.5t120.5 -49.5q74 0 120 49t46 125q0 75 -45.5 124.5t-120.5 49.5z " />
<glyph unicode="e" d="M492 85q-40 -52 -90.5 -74.5t-117.5 -22.5q-108 0 -172.5 70t-64.5 176q0 108 68 177t172 69q100 0 161 -65.5t61 -179.5v-25h-378q0 -61 44.5 -105.5t108.5 -44.5q49 0 84.5 17.5t64.5 53.5zM425 276q0 60 -38 96t-103 36q-64 0 -104.5 -35.5t-48.5 -96.5h294z" />
<glyph unicode="f" horiz-adv-x="315" d="M114 402h-102v66h102v105q0 93 38 144t128 51q37 0 60 -12l-11 -70q-28 10 -53 10q-55 0 -69.5 -33.5t-14.5 -106.5v-88h114v-66h-114v-402h-78v402z" />
<glyph unicode="g" horiz-adv-x="611" d="M541 21q0 -126 -65.5 -193.5t-189.5 -67.5q-70 0 -126 20.5t-104 68.5l56 64q37 -40 79.5 -60.5t94.5 -20.5q97 0 137 52t40 137v60q-28 -43 -73 -65t-94 -22q-110 0 -179.5 67.5t-69.5 172.5q0 114 68 180t181 66q51 0 96.5 -23.5t68.5 -68.5l2 80h78v-447zM296 66 q77 0 122 49t45 121q0 76 -46 124t-121 48q-72 0 -118.5 -49.5t-46.5 -124.5q0 -71 47.5 -119.5t117.5 -48.5z" />
<glyph unicode="h" d="M74 756h78v-353q19 31 60 54t92 23q89 0 133.5 -51.5t44.5 -139.5v-289h-78v281q0 60 -26.5 93.5t-80.5 33.5q-73 0 -109 -48.5t-36 -131.5v-228h-78v756z" />
<glyph unicode="i" horiz-adv-x="240" d="M81 468h78v-468h-78v468zM120 708q23 0 40 -17t17 -40q0 -25 -16 -41t-41 -16t-41 16t-16 41q0 23 16 40t41 17z" />
<glyph unicode="j" horiz-adv-x="240" d="M159 -105q0 -49 -31 -92t-108 -43q-15 0 -28.5 2.5t-25.5 7.5l9 68q20 -6 38 -6q40 0 54 25.5t14 73.5v537h78v-573zM120 708q23 0 40 -17t17 -40q0 -25 -16 -41t-41 -16t-41 16t-16 41q0 23 16 40t41 17z" />
<glyph unicode="k" horiz-adv-x="500" d="M74 756h78v-494l213 206h111l-226 -213l249 -255h-115l-232 246v-246h-78v756z" />
<glyph unicode="l" horiz-adv-x="240" d="M81 756h78v-756h-78v756z" />
<glyph unicode="m" horiz-adv-x="852" d="M74 357q0 23 -1.5 50.5t-2.5 60.5h74l2 -77q19 38 60.5 63.5t97.5 25.5q66 0 98.5 -26t49.5 -63q27 43 62 66t86 23q96 0 137 -49.5t41 -146.5v-284h-78v280q0 57 -25 92.5t-89 35.5q-51 0 -86 -38t-35 -100v-270h-78v265q0 77 -21 110t-69 33q-73 0 -109 -48.5 t-36 -131.5v-228h-78v357z" />
<glyph unicode="n" d="M74 357q0 23 -1.5 50.5t-2.5 60.5h74l2 -77q19 38 60.5 63.5t97.5 25.5q89 0 133.5 -51.5t44.5 -139.5v-289h-78v281q0 60 -26.5 93.5t-80.5 33.5q-73 0 -109 -48.5t-36 -131.5v-228h-78v357z" />
<glyph unicode="o" horiz-adv-x="594" d="M297 480q109 0 179.5 -68.5t70.5 -177.5t-70.5 -177.5t-179.5 -68.5t-179.5 68.5t-70.5 177.5t70.5 177.5t179.5 68.5zM297 60q74 0 120 49t46 125q0 75 -45.5 124.5t-120.5 49.5q-74 0 -120 -49t-46 -125q0 -75 45.5 -124.5t120.5 -49.5z" />
<glyph unicode="p" horiz-adv-x="611" d="M70 468h78v-68q35 39 77 59.5t93 20.5q110 0 178 -69t68 -177q0 -104 -68 -175t-166 -71q-62 0 -109.5 26t-70.5 69l-2 -311h-78v696zM314 60q74 0 120 49t46 125q0 75 -45.5 124.5t-120.5 49.5q-74 0 -120 -49t-46 -125q0 -75 45.5 -124.5t120.5 -49.5z" />
<glyph unicode="q" horiz-adv-x="611" d="M541 -228h-78v296q-35 -39 -77 -59.5t-93 -20.5q-110 0 -178 69t-68 177q0 104 68 175t166 71q62 0 109.5 -26t70.5 -69l2 83h78v-696zM297 408q-74 0 -120 -49t-46 -125q0 -75 45.5 -124.5t120.5 -49.5q74 0 120 49t46 125q0 75 -45.5 124.5t-120.5 49.5z" />
<glyph unicode="r" horiz-adv-x="352" d="M74 357q0 23 -1.5 50.5t-2.5 60.5h74l2 -77q19 38 60.5 63.5t97.5 25.5q18 0 32 -5l-5 -79q-20 6 -42 6q-69 0 -103 -46t-34 -128v-228h-78v357z" />
<glyph unicode="s" horiz-adv-x="426" d="M84 123q26 -31 53.5 -47t66.5 -16q43 0 73 17.5t30 54.5q0 33 -26.5 48.5t-102.5 32.5t-106 47.5t-30 81.5q0 64 52.5 101t122.5 37q52 0 94 -21t65 -64l-65 -43q-16 26 -40.5 41t-58.5 15q-35 0 -63.5 -17t-28.5 -48q0 -27 31 -42t96 -27.5t104.5 -42.5t39.5 -96 q0 -74 -54.5 -110.5t-132.5 -36.5q-63 0 -105.5 19t-76.5 68z" />
<glyph unicode="t" horiz-adv-x="352" d="M330 402h-138v-234q0 -56 11.5 -82t58.5 -26q21 0 36 3t33 13l3 -71q-19 -9 -42.5 -13t-48.5 -4q-78 0 -103.5 38t-25.5 119v257h-102v66h102v133h78v-133h138v-66z" />
<glyph unicode="u" d="M482 111q0 -23 2 -60t2 -51h-74l-2 77q-19 -38 -60.5 -63.5t-97.5 -25.5q-89 0 -133.5 51.5t-44.5 139.5v289h78v-281q0 -60 26.5 -93.5t80.5 -33.5q73 0 109 48.5t36 131.5v228h78v-357z" />
<glyph unicode="v" horiz-adv-x="482" d="M287 0h-86l-191 468h91l146 -367l141 367h84z" />
<glyph unicode="w" horiz-adv-x="741" d="M576 0h-77l-133 360l-120 -360h-80l-152 468h86l107 -360l123 360h82l123 -360l108 360h84z" />
<glyph unicode="x" horiz-adv-x="500" d="M195 252l-168 216h102l124 -168l117 168h95l-161 -216l193 -252h-103l-148 202l-146 -202h-97z" />
<glyph unicode="y" horiz-adv-x="482" d="M246 -107q-27 -69 -59 -101t-97 -32q-20 0 -37.5 2.5t-32.5 9.5l10 68q21 -8 55 -8q35 0 53.5 19t33.5 58l32 88l-194 471h91l145 -367l141 367h85z" />
<glyph unicode="z" horiz-adv-x="444" d="M30 61l275 341h-263v66h365v-60l-275 -342h282v-66h-384v61z" />
<glyph unicode="{" horiz-adv-x="333" d="M294 672h-54q-29 0 -39 -21.5t-10 -57.5v-176q0 -59 -29 -90t-57 -38q28 -6 57 -36.5t29 -94.5v-175q0 -47 12.5 -63t36.5 -16h54v-60h-70q-41 0 -73 34t-32 91v175q0 51 -26 82.5t-60 31.5v60q34 0 60 31.5t26 81.5v176q0 57 33 91t72 34h70v-60z" />
<glyph unicode="|" horiz-adv-x="222" d="M78 756h66v-774h-66v774z" />
<glyph unicode="}" horiz-adv-x="333" d="M39 732h70q39 0 72 -34t33 -91v-176q0 -49 26 -81t60 -32v-60q-34 0 -60 -31t-26 -83v-175q0 -58 -31.5 -91.5t-73.5 -33.5h-70v60h54q28 0 38.5 22t10.5 57v175q0 64 29 94.5t57 34.5q-42 14 -64 49t-22 81v176q0 37 -10 58t-39 21h-54v60z" />
<glyph unicode="~" horiz-adv-x="666" d="M563 324q-33 -45 -58.5 -66.5t-67.5 -21.5q-25 0 -46 7t-53 21l-58 27q-32 13 -60 13q-29 0 -49.5 -20t-34.5 -50l-33 48q39 54 65.5 71t59.5 17q25 0 46 -7t52 -21.5t61 -27t58 -12.5q29 0 49.5 20t35.5 50z" />
<glyph unicode="&#xa1;" horiz-adv-x="278" d="M97 288h84v-510h-84v510zM79 432q0 24 18 42t42 18t42 -17t18 -43q0 -25 -17.5 -42.5t-42.5 -17.5t-42.5 17.5t-17.5 42.5z" />
<glyph unicode="&#xa2;" d="M277 406q-60 -12 -93 -59t-33 -113q0 -64 34 -111.5t92 -61.5v345zM277 -12q-96 12 -153 79t-57 167q0 99 57.5 166.5t152.5 76.5v69h48v-66q47 0 89 -19t75 -55l-62 -55q-42 51 -102 57v-348q32 0 57 14.5t46 43.5l58 -55q-64 -75 -161 -75v-66h-48v66z" />
<glyph unicode="&#xa3;" d="M57 78h108v252h-96v66h96v80q0 124 58.5 184t155.5 60q48 0 88 -14.5t73 -47.5l-55 -59q-25 24 -50.5 36.5t-57.5 12.5q-70 0 -99 -45t-29 -129v-78h162v-66h-162v-252h246v-78h-438v78z" />
<glyph unicode="&#xa4;" d="M278 176q69 0 120.5 53.5t51.5 124.5q0 73 -50.5 125.5t-121.5 52.5t-121.5 -52.5t-50.5 -125.5q0 -71 50.5 -124.5t121.5 -53.5zM82 203q-54 68 -54 151q0 87 54 152l-54 54l44 44l54 -53q69 53 152 53t152 -53l54 53l44 -44l-54 -54q54 -65 54 -152q0 -83 -54 -151 l54 -55l-44 -44l-54 55q-33 -26 -73 -40.5t-79 -14.5q-42 0 -79 13.5t-73 41.5l-54 -55l-44 44z" />
<glyph unicode="&#xa5;" d="M236 174h-159v60h159v71l-9 16h-150v60h114l-191 327h100l178 -327l178 327h100l-191 -327h114v-60h-150l-9 -16v-71h159v-60h-159v-174h-84v174z" />
<glyph unicode="&#xa7;" d="M388 591q-11 31 -39.5 47t-63.5 16q-43 0 -74 -21.5t-31 -64.5q0 -49 44 -72l98 -49q71 -34 111.5 -69.5t40.5 -95.5q0 -44 -22.5 -77t-63.5 -56q34 -22 51.5 -51.5t17.5 -71.5q0 -82 -60 -126t-144 -44q-68 0 -120.5 30.5t-76.5 92.5l77 36q13 -44 46 -65.5t80 -21.5 t77.5 22.5t30.5 69.5q0 37 -24.5 56.5t-75.5 43.5l-122 64q-35 18 -54 50t-19 72q0 50 26 83t75 57q-37 21 -57 49.5t-20 68.5q0 76 57 119t135 43q58 0 105 -22.5t70 -71.5zM325 183q27 11 46 35t19 52q0 38 -25.5 60.5t-71.5 45.5l-58 29q-42 -17 -63.5 -34t-21.5 -52 t22 -54t64 -39z" />
<glyph unicode="&#xa8;" horiz-adv-x="240" d="M75 630q0 -23 -15.5 -38.5t-38.5 -15.5t-38.5 15.5t-15.5 38.5q0 22 15 38t39 16q22 0 38 -16t16 -38zM273 630q0 -23 -15.5 -38.5t-38.5 -15.5t-38.5 15.5t-15.5 38.5q0 22 15 38t39 16q22 0 38 -16t16 -38z" />
<glyph unicode="&#xa9;" horiz-adv-x="800" d="M600 282q-16 -72 -66 -114t-119 -42q-100 0 -161 64t-61 164q0 101 59 164t160 63q73 0 124.5 -39t62.5 -112h-61q-8 42 -42.5 69.5t-82.5 27.5q-73 0 -113.5 -48t-40.5 -125q0 -72 43.5 -123t112.5 -51q49 0 82.5 28.5t40.5 73.5h62zM400 726q154 0 263 -107t109 -265 q0 -157 -109.5 -264.5t-262.5 -107.5q-154 0 -263 107t-109 265q0 157 109.5 264.5t262.5 107.5zM400 36q129 0 217.5 91.5t88.5 226.5q0 134 -89 226t-217 92q-129 0 -217.5 -91.5t-88.5 -226.5q0 -134 89 -226t217 -92z" />
<glyph unicode="&#xaa;" horiz-adv-x="337" d="M300 473q0 -17 2 -27.5t2 -15.5h-61l-3 45q-28 -51 -102 -51q-48 0 -76.5 22t-28.5 66q0 60 53.5 77.5t130.5 17.5h23v14q0 15 -19.5 30t-53.5 15q-27 0 -52.5 -9.5t-36.5 -21.5l-31 42q22 21 54.5 32t65.5 11q70 0 101.5 -29.5t31.5 -89.5v-128zM192 559q-41 0 -67 -7.5 t-26 -38.5q0 -17 15.5 -26t41.5 -9q38 0 61 20t23 44v17h-48z" />
<glyph unicode="&#xab;" horiz-adv-x="500" d="M139 240l117 -178l-55 -36l-143 214l143 214l55 -36zM325 240l117 -178l-55 -36l-143 214l143 214l55 -36z" />
<glyph unicode="&#xac;" horiz-adv-x="666" d="M72 414h522v-278h-66v212h-456v66z" />
<glyph unicode="&#xad;" horiz-adv-x="333" d="M44 276h245v-72h-245v72z" />
<glyph unicode="&#xae;" horiz-adv-x="800" d="M258 572h164q152 0 152 -124q0 -56 -31.5 -84.5t-83.5 -34.5l125 -192h-71l-118 187h-71v-187h-66v435zM324 378h68q57 0 86.5 13t29.5 60q0 40 -26.5 53.5t-70.5 13.5h-87v-140zM400 726q154 0 263 -107t109 -265q0 -157 -109.5 -264.5t-262.5 -107.5q-154 0 -263 107 t-109 265q0 157 109.5 264.5t262.5 107.5zM400 36q129 0 217.5 91.5t88.5 226.5q0 134 -89 226t-217 92q-129 0 -217.5 -91.5t-88.5 -226.5q0 -134 89 -226t217 -92z" />
<glyph unicode="&#xb0;" horiz-adv-x="400" d="M200 720q60 0 101.5 -41.5t41.5 -101.5t-41.5 -101.5t-101.5 -41.5t-101.5 41.5t-41.5 101.5t41.5 101.5t101.5 41.5zM200 488q38 0 63.5 28t25.5 61q0 34 -25 61.5t-64 27.5q-38 0 -63.5 -28t-25.5 -61q0 -34 25 -61.5t64 -27.5z" />
<glyph unicode="&#xb1;" horiz-adv-x="666" d="M72 396h228v168h66v-168h228v-66h-228v-168h-66v168h-228v66zM72 108h522v-66h-522v66z" />
<glyph unicode="&#xb4;" horiz-adv-x="240" d="M155 708h110l-143 -144h-71z" />
<glyph unicode="&#xb5;" d="M482 111q0 -23 2 -60t2 -51h-74l-2 77q-19 -38 -60.5 -63.5t-97.5 -25.5q-57 0 -100 25v-241h-78v407v289h78v-281q0 -60 26.5 -93.5t80.5 -33.5q73 0 109 48.5t36 131.5v228h78v-357z" />
<glyph unicode="&#xb6;" horiz-adv-x="600" d="M292 316q-90 0 -149.5 53.5t-59.5 132.5q0 97 60.5 151.5t167.5 54.5h243v-834h-72v768h-118v-768h-72v442z" />
<glyph unicode="&#xb8;" horiz-adv-x="240" d="M113 -64q9 2 18 3t17 1q31 0 55.5 -17.5t24.5 -51.5q0 -44 -35 -66t-82 -22q-54 0 -99 21l17 37q35 -16 72 -16q24 0 42.5 9.5t18.5 31.5q0 19 -16 28.5t-36 9.5q-8 0 -15 -1t-24 -7l-20 19l62 85h45z" />
<glyph unicode="&#xba;" horiz-adv-x="386" d="M193 720q71 0 117 -41t46 -106q0 -67 -46 -108t-117 -41q-72 0 -117.5 40.5t-45.5 108.5q0 65 46 106t117 41zM193 478q43 0 70 28t27 67q0 37 -27 65t-70 28t-70 -28t-27 -65q0 -39 27 -67t70 -28z" />
<glyph unicode="&#xbb;" horiz-adv-x="500" d="M175 240l-117 178l55 36l143 -214l-143 -214l-55 36zM361 240l-117 178l55 36l143 -214l-143 -214l-55 36z" />
<glyph unicode="&#xbf;" horiz-adv-x="482" d="M455 -69q-13 -80 -71.5 -125.5t-141.5 -45.5q-84 0 -139.5 47.5t-55.5 130.5q0 59 27 98t73 82t54 61.5t8 62.5v46h84v-63q0 -52 -12.5 -74.5t-60 -70.5t-65.5 -72.5t-18 -66.5q0 -48 28.5 -78.5t77.5 -30.5t81.5 30t40.5 79zM191 432q0 24 18 42t42 18t42 -17t18 -43 q0 -25 -17.5 -42.5t-42.5 -17.5t-42.5 17.5t-17.5 42.5z" />
<glyph unicode="&#xc0;" horiz-adv-x="704" d="M421 758h-71l-143 144h110zM318 708h79l301 -708h-98l-72 174h-354l-73 -174h-95zM356 600l-149 -348h289z" />
<glyph unicode="&#xc1;" horiz-adv-x="704" d="M387 902h110l-143 -144h-71zM318 708h79l301 -708h-98l-72 174h-354l-73 -174h-95zM356 600l-149 -348h289z" />
<glyph unicode="&#xc2;" horiz-adv-x="704" d="M318 708h79l301 -708h-98l-72 174h-354l-73 -174h-95zM356 600l-149 -348h289zM306 902h91l112 -144h-81l-79 102l-78 -102h-76z" />
<glyph unicode="&#xc3;" horiz-adv-x="704" d="M318 708h79l301 -708h-98l-72 174h-354l-73 -174h-95zM356 600l-149 -348h289zM185 770q7 44 33 74t67 30q16 0 31 -4t43 -15q27 -13 39 -17t25 -4q18 0 30 12t18 32h48q-7 -44 -29 -74t-64 -30q-20 0 -34 4t-40 14l-42 16q-17 6 -31 6q-17 0 -29 -12t-17 -32h-48z" />
<glyph unicode="&#xc4;" horiz-adv-x="704" d="M307 824q0 -23 -15.5 -38.5t-38.5 -15.5t-38.5 15.5t-15.5 38.5q0 22 15 38t39 16q22 0 38 -16t16 -38zM505 824q0 -23 -15.5 -38.5t-38.5 -15.5t-38.5 15.5t-15.5 38.5q0 22 15 38t39 16q22 0 38 -16t16 -38zM318 708h79l301 -708h-98l-72 174h-354l-73 -174h-95z M356 600l-149 -348h289z" />
<glyph unicode="&#xc5;" horiz-adv-x="704" d="M318 708h79l301 -708h-98l-72 174h-354l-73 -174h-95zM356 600l-149 -348h289zM352 928q43 0 71 -29t28 -70t-28 -70t-71 -29t-71 29t-28 70q1 39 29 69t70 30zM352 772q22 0 40 16t17 41q1 25 -17 41t-40 16t-40 -16t-17 -41q0 -25 17 -41t40 -16z" />
<glyph unicode="&#xc6;" horiz-adv-x="944" d="M450 708h435v-78h-294v-222h276v-78h-276v-252h306v-78h-390v192h-293l-123 -192h-101zM507 630h-12l-231 -360h243v360z" />
<glyph unicode="&#xc7;" horiz-adv-x="704" d="M375 -64q9 2 18 3t17 1q31 0 55.5 -17.5t24.5 -51.5q0 -44 -35 -66t-82 -22q-54 0 -99 21l17 37q35 -16 72 -16q24 0 42.5 9.5t18.5 31.5q0 19 -16 28.5t-36 9.5q-8 0 -15 -1t-24 -7l-20 19l62 85h45zM584 562q-31 41 -77.5 63.5t-99.5 22.5q-115 0 -192.5 -87.5 t-77.5 -206.5q0 -125 76 -209.5t194 -84.5q128 0 205 99l63 -53q-47 -63 -114 -93.5t-154 -30.5q-153 0 -256.5 105.5t-103.5 266.5q0 158 102 265t258 107q76 0 141.5 -27.5t108.5 -83.5z" />
<glyph unicode="&#xc8;" horiz-adv-x="593" d="M366 758h-71l-143 144h110zM88 708h445v-78h-361v-222h337v-78h-337v-252h379v-78h-463v708z" />
<glyph unicode="&#xc9;" horiz-adv-x="593" d="M332 902h110l-143 -144h-71zM88 708h445v-78h-361v-222h337v-78h-337v-252h379v-78h-463v708z" />
<glyph unicode="&#xca;" horiz-adv-x="593" d="M88 708h445v-78h-361v-222h337v-78h-337v-252h379v-78h-463v708zM251 902h91l112 -144h-81l-79 102l-78 -102h-76z" />
<glyph unicode="&#xcb;" horiz-adv-x="593" d="M252 824q0 -23 -15.5 -38.5t-38.5 -15.5t-38.5 15.5t-15.5 38.5q0 22 15 38t39 16q22 0 38 -16t16 -38zM450 824q0 -23 -15.5 -38.5t-38.5 -15.5t-38.5 15.5t-15.5 38.5q0 22 15 38t39 16q22 0 38 -16t16 -38zM88 708h445v-78h-361v-222h337v-78h-337v-252h379v-78h-463 v708z" />
<glyph unicode="&#xcc;" horiz-adv-x="260" d="M199 758h-71l-143 144h110zM88 708h84v-708h-84v708z" />
<glyph unicode="&#xcd;" horiz-adv-x="260" d="M165 902h110l-143 -144h-71zM88 708h84v-708h-84v708z" />
<glyph unicode="&#xce;" horiz-adv-x="260" d="M88 708h84v-708h-84v708zM84 902h91l112 -144h-81l-79 102l-78 -102h-76z" />
<glyph unicode="&#xcf;" horiz-adv-x="260" d="M85 824q0 -23 -15.5 -38.5t-38.5 -15.5t-38.5 15.5t-15.5 38.5q0 22 15 38t39 16q22 0 38 -16t16 -38zM283 824q0 -23 -15.5 -38.5t-38.5 -15.5t-38.5 15.5t-15.5 38.5q0 22 15 38t39 16q22 0 38 -16t16 -38zM88 708h84v-708h-84v708z" />
<glyph unicode="&#xd1;" horiz-adv-x="778" d="M88 708h106l410 -588l2 588h84v-708h-106l-410 588l-2 -588h-84v708zM222 770q6 44 32 74t68 30q16 0 31 -4t43 -15q28 -13 40 -17t24 -4q18 0 30 12t18 32h48q-8 -44 -30 -74t-63 -30q-21 0 -35 4t-38 14q-26 10 -43 16t-31 6q-18 0 -30 -12t-16 -32h-48z" />
<glyph unicode="&#xd2;" horiz-adv-x="834" d="M486 758h-71l-143 144h110zM47 354q0 161 104.5 266.5t265.5 105.5q162 0 266 -105t104 -267q0 -161 -104.5 -266.5t-265.5 -105.5q-162 0 -266 105t-104 267zM697 354q0 125 -78.5 209.5t-201.5 84.5q-122 0 -201 -85t-79 -209q0 -125 78.5 -209.5t201.5 -84.5 q122 0 201 85t79 209z" />
<glyph unicode="&#xd3;" horiz-adv-x="834" d="M452 902h110l-143 -144h-71zM47 354q0 161 104.5 266.5t265.5 105.5q162 0 266 -105t104 -267q0 -161 -104.5 -266.5t-265.5 -105.5q-162 0 -266 105t-104 267zM697 354q0 125 -78.5 209.5t-201.5 84.5q-122 0 -201 -85t-79 -209q0 -125 78.5 -209.5t201.5 -84.5 q122 0 201 85t79 209z" />
<glyph unicode="&#xd4;" horiz-adv-x="834" d="M47 354q0 161 104.5 266.5t265.5 105.5q162 0 266 -105t104 -267q0 -161 -104.5 -266.5t-265.5 -105.5q-162 0 -266 105t-104 267zM697 354q0 125 -78.5 209.5t-201.5 84.5q-122 0 -201 -85t-79 -209q0 -125 78.5 -209.5t201.5 -84.5q122 0 201 85t79 209zM371 902h91 l112 -144h-81l-79 102l-78 -102h-76z" />
<glyph unicode="&#xd5;" horiz-adv-x="834" d="M47 354q0 161 104.5 266.5t265.5 105.5q162 0 266 -105t104 -267q0 -161 -104.5 -266.5t-265.5 -105.5q-162 0 -266 105t-104 267zM697 354q0 125 -78.5 209.5t-201.5 84.5q-122 0 -201 -85t-79 -209q0 -125 78.5 -209.5t201.5 -84.5q122 0 201 85t79 209zM250 770 q6 44 32 74t68 30q16 0 31 -4t43 -15q28 -13 40 -17t24 -4q18 0 30 12t18 32h48q-8 -44 -30 -74t-63 -30q-21 0 -35 4t-38 14q-26 10 -43 16t-31 6q-18 0 -30 -12t-16 -32h-48z" />
<glyph unicode="&#xd6;" horiz-adv-x="834" d="M372 824q0 -23 -15.5 -38.5t-38.5 -15.5t-38.5 15.5t-15.5 38.5q0 22 15 38t39 16q22 0 38 -16t16 -38zM570 824q0 -23 -15.5 -38.5t-38.5 -15.5t-38.5 15.5t-15.5 38.5q0 22 15 38t39 16q22 0 38 -16t16 -38zM47 354q0 161 104.5 266.5t265.5 105.5q162 0 266 -105 t104 -267q0 -161 -104.5 -266.5t-265.5 -105.5q-162 0 -266 105t-104 267zM697 354q0 125 -78.5 209.5t-201.5 84.5q-122 0 -201 -85t-79 -209q0 -125 78.5 -209.5t201.5 -84.5q122 0 201 85t79 209z" />
<glyph unicode="&#xd8;" horiz-adv-x="834" d="M239 124q35 -31 80.5 -47.5t97.5 -16.5q122 0 201 85t79 209q0 115 -67 196zM590 589q-34 28 -79 43.5t-94 15.5q-122 0 -201 -85t-79 -209q0 -111 63 -190zM141 99q-45 49 -69.5 115t-24.5 140q0 161 104.5 266.5t265.5 105.5q67 0 123.5 -18.5t106.5 -56.5l79 87 l42 -38l-79 -86q47 -50 72.5 -116t25.5 -144q0 -161 -104.5 -266.5t-265.5 -105.5q-138 0 -236 79l-81 -88l-40 38z" />
<glyph unicode="&#xd9;" horiz-adv-x="704" d="M421 758h-71l-143 144h110zM619 270q0 -127 -64.5 -207.5t-202.5 -80.5q-137 0 -202 81t-65 207v438h84v-426q0 -98 42 -160t141 -62q97 0 140 62.5t43 159.5v426h84v-438z" />
<glyph unicode="&#xda;" horiz-adv-x="704" d="M387 902h110l-143 -144h-71zM619 270q0 -127 -64.5 -207.5t-202.5 -80.5q-137 0 -202 81t-65 207v438h84v-426q0 -98 42 -160t141 -62q97 0 140 62.5t43 159.5v426h84v-438z" />
<glyph unicode="&#xdb;" horiz-adv-x="704" d="M619 270q0 -127 -64.5 -207.5t-202.5 -80.5q-137 0 -202 81t-65 207v438h84v-426q0 -98 42 -160t141 -62q97 0 140 62.5t43 159.5v426h84v-438zM306 902h91l112 -144h-81l-79 102l-78 -102h-76z" />
<glyph unicode="&#xdc;" horiz-adv-x="704" d="M307 824q0 -23 -15.5 -38.5t-38.5 -15.5t-38.5 15.5t-15.5 38.5q0 22 15 38t39 16q22 0 38 -16t16 -38zM505 824q0 -23 -15.5 -38.5t-38.5 -15.5t-38.5 15.5t-15.5 38.5q0 22 15 38t39 16q22 0 38 -16t16 -38zM619 270q0 -127 -64.5 -207.5t-202.5 -80.5q-137 0 -202 81 t-65 207v438h84v-426q0 -98 42 -160t141 -62q97 0 140 62.5t43 159.5v426h84v-438z" />
<glyph unicode="&#xdf;" horiz-adv-x="593" d="M74 540q0 100 53.5 164t165.5 64q85 0 140.5 -47t55.5 -131q0 -57 -28 -98t-82 -60q81 -10 125.5 -69.5t44.5 -144.5q0 -103 -67.5 -166.5t-171.5 -63.5q-12 0 -26 0.5t-36 8.5v71q23 -8 52 -8q75 0 120 45t45 120q0 79 -48.5 124.5t-128.5 45.5h-23v66h22 q55 0 89.5 32.5t34.5 87.5q0 52 -34.5 83.5t-87.5 31.5q-74 0 -105.5 -45.5t-31.5 -117.5v-533h-78v540z" />
<glyph unicode="&#xe0;" horiz-adv-x="519" d="M329 580h-71l-143 144h110zM68 408q35 35 84.5 53.5t101.5 18.5q103 0 149.5 -48.5t46.5 -149.5v-201q0 -39 7 -81h-75q-3 11 -4 32.5t-1 37.5q-27 -39 -65.5 -60.5t-90.5 -21.5q-75 0 -124.5 36.5t-49.5 102.5q0 102 85 133t210 31h30v14q0 51 -30 77t-86 26 q-40 0 -75.5 -12.5t-63.5 -38.5zM294 225q-78 0 -120.5 -21.5t-42.5 -68.5q0 -42 28 -61.5t75 -19.5q65 0 101.5 40.5t36.5 100.5v30h-78z" />
<glyph unicode="&#xe1;" horiz-adv-x="519" d="M295 724h110l-143 -144h-71zM68 408q35 35 84.5 53.5t101.5 18.5q103 0 149.5 -48.5t46.5 -149.5v-201q0 -39 7 -81h-75q-3 11 -4 32.5t-1 37.5q-27 -39 -65.5 -60.5t-90.5 -21.5q-75 0 -124.5 36.5t-49.5 102.5q0 102 85 133t210 31h30v14q0 51 -30 77t-86 26 q-40 0 -75.5 -12.5t-63.5 -38.5zM294 225q-78 0 -120.5 -21.5t-42.5 -68.5q0 -42 28 -61.5t75 -19.5q65 0 101.5 40.5t36.5 100.5v30h-78z" />
<glyph unicode="&#xe2;" horiz-adv-x="519" d="M68 408q35 35 84.5 53.5t101.5 18.5q103 0 149.5 -48.5t46.5 -149.5v-201q0 -39 7 -81h-75q-3 11 -4 32.5t-1 37.5q-27 -39 -65.5 -60.5t-90.5 -21.5q-75 0 -124.5 36.5t-49.5 102.5q0 102 85 133t210 31h30v14q0 51 -30 77t-86 26q-40 0 -75.5 -12.5t-63.5 -38.5z M294 225q-78 0 -120.5 -21.5t-42.5 -68.5q0 -42 28 -61.5t75 -19.5q65 0 101.5 40.5t36.5 100.5v30h-78zM214 724h91l112 -144h-81l-79 102l-78 -102h-76z" />
<glyph unicode="&#xe3;" horiz-adv-x="519" d="M68 408q35 35 84.5 53.5t101.5 18.5q103 0 149.5 -48.5t46.5 -149.5v-201q0 -39 7 -81h-75q-3 11 -4 32.5t-1 37.5q-27 -39 -65.5 -60.5t-90.5 -21.5q-75 0 -124.5 36.5t-49.5 102.5q0 102 85 133t210 31h30v14q0 51 -30 77t-86 26q-40 0 -75.5 -12.5t-63.5 -38.5z M294 225q-78 0 -120.5 -21.5t-42.5 -68.5q0 -42 28 -61.5t75 -19.5q65 0 101.5 40.5t36.5 100.5v30h-78zM93 592q7 44 33 74t67 30q16 0 31 -4t43 -15q27 -13 39 -17t25 -4q18 0 30 12t18 32h48q-7 -44 -29 -74t-64 -30q-20 0 -34 4t-40 14l-42 16q-17 6 -31 6 q-17 0 -29 -12t-17 -32h-48z" />
<glyph unicode="&#xe4;" horiz-adv-x="519" d="M215 646q0 -23 -15.5 -38.5t-38.5 -15.5t-38.5 15.5t-15.5 38.5q0 22 15 38t39 16q22 0 38 -16t16 -38zM413 646q0 -23 -15.5 -38.5t-38.5 -15.5t-38.5 15.5t-15.5 38.5q0 22 15 38t39 16q22 0 38 -16t16 -38zM68 408q35 35 84.5 53.5t101.5 18.5q103 0 149.5 -48.5 t46.5 -149.5v-201q0 -39 7 -81h-75q-3 11 -4 32.5t-1 37.5q-27 -39 -65.5 -60.5t-90.5 -21.5q-75 0 -124.5 36.5t-49.5 102.5q0 102 85 133t210 31h30v14q0 51 -30 77t-86 26q-40 0 -75.5 -12.5t-63.5 -38.5zM294 225q-78 0 -120.5 -21.5t-42.5 -68.5q0 -42 28 -61.5 t75 -19.5q65 0 101.5 40.5t36.5 100.5v30h-78z" />
<glyph unicode="&#xe5;" horiz-adv-x="519" d="M68 408q35 35 84.5 53.5t101.5 18.5q103 0 149.5 -48.5t46.5 -149.5v-201q0 -39 7 -81h-75q-3 11 -4 32.5t-1 37.5q-27 -39 -65.5 -60.5t-90.5 -21.5q-75 0 -124.5 36.5t-49.5 102.5q0 102 85 133t210 31h30v14q0 51 -30 77t-86 26q-40 0 -75.5 -12.5t-63.5 -38.5z M294 225q-78 0 -120.5 -21.5t-42.5 -68.5q0 -42 28 -61.5t75 -19.5q65 0 101.5 40.5t36.5 100.5v30h-78zM260 760q43 0 71 -29t28 -70t-28 -70t-71 -29t-71 29t-28 70q1 39 29 69t70 30zM260 604q22 0 40 16t17 41q1 25 -17 41t-40 16t-40 -16t-17 -41q0 -25 17 -41t40 -16z " />
<glyph unicode="&#xe6;" horiz-adv-x="852" d="M793 85q-40 -52 -90.5 -74.5t-117.5 -22.5q-64 0 -110 29.5t-68 71.5q-26 -53 -74.5 -77t-112.5 -24q-70 0 -121.5 35t-51.5 106q0 86 67 116.5t167 30.5h96v12q0 54 -29.5 87t-87.5 33q-75 0 -137 -46l-50 52q37 32 86.5 49t100.5 17q54 0 95.5 -18.5t66.5 -60.5 q40 42 80 60.5t86 18.5q100 0 161 -65.5t61 -179.5v-25h-361q0 -63 38.5 -106.5t97.5 -43.5q49 0 84.5 17.5t64.5 53.5zM260 210q-52 0 -90.5 -17.5t-38.5 -60.5q0 -37 32 -54.5t77 -17.5q61 0 99 38t38 99v13h-117zM726 276q0 60 -38 96t-103 36q-57 0 -96.5 -40.5 t-39.5 -91.5h277z" />
<glyph unicode="&#xe7;" horiz-adv-x="482" d="M269 -64q9 2 18 3t17 1q31 0 55.5 -17.5t24.5 -51.5q0 -44 -35 -66t-82 -22q-54 0 -99 21l17 37q35 -16 72 -16q24 0 42.5 9.5t18.5 31.5q0 19 -16 28.5t-36 9.5q-8 0 -15 -1t-24 -7l-20 19l62 85h45zM407 351q-47 57 -118 57q-75 0 -116.5 -49.5t-41.5 -124.5 q0 -74 44 -124t114 -50q77 0 119 58l58 -55q-33 -38 -78.5 -56.5t-98.5 -18.5q-108 0 -175 69t-67 177q0 107 67.5 176.5t174.5 69.5q55 0 99.5 -17.5t80.5 -56.5z" />
<glyph unicode="&#xe8;" d="M347 580h-71l-143 144h110zM492 85q-40 -52 -90.5 -74.5t-117.5 -22.5q-108 0 -172.5 70t-64.5 176q0 108 68 177t172 69q100 0 161 -65.5t61 -179.5v-25h-378q0 -61 44.5 -105.5t108.5 -44.5q49 0 84.5 17.5t64.5 53.5zM425 276q0 60 -38 96t-103 36q-64 0 -104.5 -35.5 t-48.5 -96.5h294z" />
<glyph unicode="&#xe9;" d="M313 724h110l-143 -144h-71zM492 85q-40 -52 -90.5 -74.5t-117.5 -22.5q-108 0 -172.5 70t-64.5 176q0 108 68 177t172 69q100 0 161 -65.5t61 -179.5v-25h-378q0 -61 44.5 -105.5t108.5 -44.5q49 0 84.5 17.5t64.5 53.5zM425 276q0 60 -38 96t-103 36 q-64 0 -104.5 -35.5t-48.5 -96.5h294z" />
<glyph unicode="&#xea;" d="M492 85q-40 -52 -90.5 -74.5t-117.5 -22.5q-108 0 -172.5 70t-64.5 176q0 108 68 177t172 69q100 0 161 -65.5t61 -179.5v-25h-378q0 -61 44.5 -105.5t108.5 -44.5q49 0 84.5 17.5t64.5 53.5zM425 276q0 60 -38 96t-103 36q-64 0 -104.5 -35.5t-48.5 -96.5h294zM232 724 h91l112 -144h-81l-79 102l-78 -102h-76z" />
<glyph unicode="&#xeb;" d="M233 646q0 -23 -15.5 -38.5t-38.5 -15.5t-38.5 15.5t-15.5 38.5q0 22 15 38t39 16q22 0 38 -16t16 -38zM431 646q0 -23 -15.5 -38.5t-38.5 -15.5t-38.5 15.5t-15.5 38.5q0 22 15 38t39 16q22 0 38 -16t16 -38zM492 85q-40 -52 -90.5 -74.5t-117.5 -22.5q-108 0 -172.5 70 t-64.5 176q0 108 68 177t172 69q100 0 161 -65.5t61 -179.5v-25h-378q0 -61 44.5 -105.5t108.5 -44.5q49 0 84.5 17.5t64.5 53.5zM425 276q0 60 -38 96t-103 36q-64 0 -104.5 -35.5t-48.5 -96.5h294z" />
<glyph unicode="&#xec;" horiz-adv-x="240" d="M189 580h-71l-143 144h110zM81 468h78v-468h-78v468z" />
<glyph unicode="&#xed;" horiz-adv-x="240" d="M155 724h110l-143 -144h-71zM81 468h78v-468h-78v468z" />
<glyph unicode="&#xee;" horiz-adv-x="240" d="M74 724h91l112 -144h-81l-79 102l-78 -102h-76zM81 468h78v-468h-78v468z" />
<glyph unicode="&#xef;" horiz-adv-x="240" d="M75 646q0 -23 -15.5 -38.5t-38.5 -15.5t-38.5 15.5t-15.5 38.5q0 22 15 38t39 16q22 0 38 -16t16 -38zM273 646q0 -23 -15.5 -38.5t-38.5 -15.5t-38.5 15.5t-15.5 38.5q0 22 15 38t39 16q22 0 38 -16t16 -38zM81 468h78v-468h-78v468z" />
<glyph unicode="&#xf1;" d="M74 357q0 23 -1.5 50.5t-2.5 60.5h74l2 -77q19 38 60.5 63.5t97.5 25.5q89 0 133.5 -51.5t44.5 -139.5v-289h-78v281q0 60 -26.5 93.5t-80.5 33.5q-73 0 -109 -48.5t-36 -131.5v-228h-78v357zM111 592q7 44 33 74t67 30q16 0 31 -4t43 -15q27 -13 39 -17t25 -4 q18 0 30 12t18 32h48q-7 -44 -29 -74t-64 -30q-20 0 -34 4t-40 14l-42 16q-17 6 -31 6q-17 0 -29 -12t-17 -32h-48z" />
<glyph unicode="&#xf2;" horiz-adv-x="594" d="M366 580h-71l-143 144h110zM297 480q109 0 179.5 -68.5t70.5 -177.5t-70.5 -177.5t-179.5 -68.5t-179.5 68.5t-70.5 177.5t70.5 177.5t179.5 68.5zM297 60q74 0 120 49t46 125q0 75 -45.5 124.5t-120.5 49.5q-74 0 -120 -49t-46 -125q0 -75 45.5 -124.5t120.5 -49.5z" />
<glyph unicode="&#xf3;" horiz-adv-x="594" d="M332 724h110l-143 -144h-71zM297 480q109 0 179.5 -68.5t70.5 -177.5t-70.5 -177.5t-179.5 -68.5t-179.5 68.5t-70.5 177.5t70.5 177.5t179.5 68.5zM297 60q74 0 120 49t46 125q0 75 -45.5 124.5t-120.5 49.5q-74 0 -120 -49t-46 -125q0 -75 45.5 -124.5t120.5 -49.5z " />
<glyph unicode="&#xf4;" horiz-adv-x="594" d="M297 480q109 0 179.5 -68.5t70.5 -177.5t-70.5 -177.5t-179.5 -68.5t-179.5 68.5t-70.5 177.5t70.5 177.5t179.5 68.5zM297 60q74 0 120 49t46 125q0 75 -45.5 124.5t-120.5 49.5q-74 0 -120 -49t-46 -125q0 -75 45.5 -124.5t120.5 -49.5zM251 724h91l112 -144h-81 l-79 102l-78 -102h-76z" />
<glyph unicode="&#xf5;" horiz-adv-x="594" d="M297 480q109 0 179.5 -68.5t70.5 -177.5t-70.5 -177.5t-179.5 -68.5t-179.5 68.5t-70.5 177.5t70.5 177.5t179.5 68.5zM297 60q74 0 120 49t46 125q0 75 -45.5 124.5t-120.5 49.5q-74 0 -120 -49t-46 -125q0 -75 45.5 -124.5t120.5 -49.5zM130 592q6 44 32 74t68 30 q16 0 31 -4t43 -15q28 -13 40 -17t24 -4q18 0 30 12t18 32h48q-8 -44 -30 -74t-63 -30q-21 0 -35 4t-38 14q-26 10 -43 16t-31 6q-18 0 -30 -12t-16 -32h-48z" />
<glyph unicode="&#xf6;" horiz-adv-x="594" d="M252 646q0 -23 -15.5 -38.5t-38.5 -15.5t-38.5 15.5t-15.5 38.5q0 22 15 38t39 16q22 0 38 -16t16 -38zM450 646q0 -23 -15.5 -38.5t-38.5 -15.5t-38.5 15.5t-15.5 38.5q0 22 15 38t39 16q22 0 38 -16t16 -38zM297 480q109 0 179.5 -68.5t70.5 -177.5t-70.5 -177.5 t-179.5 -68.5t-179.5 68.5t-70.5 177.5t70.5 177.5t179.5 68.5zM297 60q74 0 120 49t46 125q0 75 -45.5 124.5t-120.5 49.5q-74 0 -120 -49t-46 -125q0 -75 45.5 -124.5t120.5 -49.5z" />
<glyph unicode="&#xf7;" horiz-adv-x="666" d="M72 336h522v-66h-522v66zM333 525q23 0 40 -17t17 -40t-17 -40t-40 -17t-40 17t-17 40t17 40t40 17zM333 195q23 0 40 -17t17 -40t-17 -40t-40 -17t-40 17t-17 40t17 40t40 17z" />
<glyph unicode="&#xf8;" horiz-adv-x="594" d="M401 373q-43 35 -104 35q-74 0 -120 -49t-46 -125q0 -61 31 -104zM193 95q41 -35 104 -35q74 0 120 49t46 125q0 61 -31 104zM105 72q-58 64 -58 162q0 109 70.5 177.5t179.5 68.5q92 0 159 -51l67 69l34 -32l-67 -69q27 -32 42 -73.5t15 -89.5q0 -109 -70.5 -177.5 t-179.5 -68.5q-48 0 -86.5 13t-71.5 39l-68 -70l-34 32z" />
<glyph unicode="&#xf9;" d="M347 580h-71l-143 144h110zM482 111q0 -23 2 -60t2 -51h-74l-2 77q-19 -38 -60.5 -63.5t-97.5 -25.5q-89 0 -133.5 51.5t-44.5 139.5v289h78v-281q0 -60 26.5 -93.5t80.5 -33.5q73 0 109 48.5t36 131.5v228h78v-357z" />
<glyph unicode="&#xfa;" d="M313 724h110l-143 -144h-71zM482 111q0 -23 2 -60t2 -51h-74l-2 77q-19 -38 -60.5 -63.5t-97.5 -25.5q-89 0 -133.5 51.5t-44.5 139.5v289h78v-281q0 -60 26.5 -93.5t80.5 -33.5q73 0 109 48.5t36 131.5v228h78v-357z" />
<glyph unicode="&#xfb;" d="M482 111q0 -23 2 -60t2 -51h-74l-2 77q-19 -38 -60.5 -63.5t-97.5 -25.5q-89 0 -133.5 51.5t-44.5 139.5v289h78v-281q0 -60 26.5 -93.5t80.5 -33.5q73 0 109 48.5t36 131.5v228h78v-357zM232 724h91l112 -144h-81l-79 102l-78 -102h-76z" />
<glyph unicode="&#xfc;" d="M233 646q0 -23 -15.5 -38.5t-38.5 -15.5t-38.5 15.5t-15.5 38.5q0 22 15 38t39 16q22 0 38 -16t16 -38zM431 646q0 -23 -15.5 -38.5t-38.5 -15.5t-38.5 15.5t-15.5 38.5q0 22 15 38t39 16q22 0 38 -16t16 -38zM482 111q0 -23 2 -60t2 -51h-74l-2 77q-19 -38 -60.5 -63.5 t-97.5 -25.5q-89 0 -133.5 51.5t-44.5 139.5v289h78v-281q0 -60 26.5 -93.5t80.5 -33.5q73 0 109 48.5t36 131.5v228h78v-357z" />
<glyph unicode="&#xff;" horiz-adv-x="482" d="M196 646q0 -23 -15.5 -38.5t-38.5 -15.5t-38.5 15.5t-15.5 38.5q0 22 15 38t39 16q22 0 38 -16t16 -38zM394 646q0 -23 -15.5 -38.5t-38.5 -15.5t-38.5 15.5t-15.5 38.5q0 22 15 38t39 16q22 0 38 -16t16 -38zM246 -107q-27 -69 -59 -101t-97 -32q-20 0 -37.5 2.5 t-32.5 9.5l10 68q21 -8 55 -8q35 0 53.5 19t33.5 58l32 88l-194 471h91l145 -367l141 367h85z" />
<glyph unicode="&#x152;" horiz-adv-x="963" d="M602 408h282v-78h-282v-252h306v-78h-460q-185 0 -289 103t-104 251q0 147 103.5 250.5t289.5 103.5h454v-78h-300v-222zM518 630h-66q-149 0 -228 -81.5t-79 -194.5q0 -112 79 -194t228 -82h66v552z" />
<glyph unicode="&#x153;" horiz-adv-x="907" d="M510 210q0 -63 38.5 -106.5t97.5 -43.5q49 0 84.5 17.5t64.5 53.5l59 -46q-40 -52 -90.5 -74.5t-117.5 -22.5q-54 0 -99 23t-75 73q-37 -49 -83 -72.5t-109 -23.5q-111 0 -177.5 67.5t-66.5 178.5q0 107 67.5 176.5t173.5 69.5q122 0 195 -94q73 94 177 94 q100 0 161 -65.5t61 -179.5v-25h-361zM276 60q77 0 119.5 49t42.5 125q0 74 -41.5 124t-116.5 50q-76 0 -118 -49.5t-42 -124.5q0 -72 41 -123t115 -51zM787 276q0 60 -38 96t-103 36q-57 0 -96.5 -40.5t-39.5 -91.5h277z" />
<glyph unicode="&#x178;" horiz-adv-x="594" d="M252 824q0 -23 -15.5 -38.5t-38.5 -15.5t-38.5 15.5t-15.5 38.5q0 22 15 38t39 16q22 0 38 -16t16 -38zM450 824q0 -23 -15.5 -38.5t-38.5 -15.5t-38.5 15.5t-15.5 38.5q0 22 15 38t39 16q22 0 38 -16t16 -38zM255 305l-264 403h107l199 -320l205 320h101l-264 -403v-305 h-84v305z" />
<glyph unicode="&#x2000;" horiz-adv-x="464" />
<glyph unicode="&#x2001;" horiz-adv-x="928" />
<glyph unicode="&#x2002;" horiz-adv-x="464" />
<glyph unicode="&#x2003;" horiz-adv-x="928" />
<glyph unicode="&#x2004;" horiz-adv-x="309" />
<glyph unicode="&#x2005;" horiz-adv-x="232" />
<glyph unicode="&#x2006;" horiz-adv-x="154" />
<glyph unicode="&#x2007;" horiz-adv-x="154" />
<glyph unicode="&#x2008;" horiz-adv-x="116" />
<glyph unicode="&#x2009;" horiz-adv-x="185" />
<glyph unicode="&#x200a;" horiz-adv-x="51" />
<glyph unicode="&#x2010;" horiz-adv-x="333" d="M44 276h245v-72h-245v72z" />
<glyph unicode="&#x2011;" horiz-adv-x="333" d="M44 276h245v-72h-245v72z" />
<glyph unicode="&#x2013;" horiz-adv-x="500" d="M500 204h-500v72h500v-72z" />
<glyph unicode="&#x2014;" horiz-adv-x="1000" d="M0 276h1000v-72h-1000v72z" />
<glyph unicode="&#x2018;" horiz-adv-x="278" d="M142 708h76l-67 -240h-91z" />
<glyph unicode="&#x2019;" horiz-adv-x="278" d="M136 468h-76l67 240h91z" />
<glyph unicode="&#x201a;" horiz-adv-x="278" d="M136 -138h-76l67 240h91z" />
<glyph unicode="&#x201c;" horiz-adv-x="519" d="M169 708h76l-67 -240h-91zM356 708h76l-67 -240h-91z" />
<glyph unicode="&#x201d;" horiz-adv-x="519" d="M163 468h-76l67 240h91zM350 468h-76l67 240h91z" />
<glyph unicode="&#x201e;" horiz-adv-x="519" d="M163 -138h-76l67 240h91zM350 -138h-76l67 240h91z" />
<glyph unicode="&#x2022;" horiz-adv-x="500" d="M250 531q74 0 125.5 -51.5t51.5 -125.5t-51.5 -125.5t-125.5 -51.5t-125.5 51.5t-51.5 125.5t51.5 125.5t125.5 51.5z" />
<glyph unicode="&#x2026;" horiz-adv-x="1000" d="M227 54q0 -24 -18 -42t-42 -18t-42 17t-18 43q0 25 17.5 42.5t42.5 17.5t42.5 -17.5t17.5 -42.5zM560 54q0 -24 -18 -42t-42 -18t-42 17t-18 43q0 25 17.5 42.5t42.5 17.5t42.5 -17.5t17.5 -42.5zM893 54q0 -24 -18 -42t-42 -18t-42 17t-18 43q0 25 17.5 42.5t42.5 17.5 t42.5 -17.5t17.5 -42.5z" />
<glyph unicode="&#x202f;" horiz-adv-x="185" />
<glyph unicode="&#x2039;" horiz-adv-x="314" d="M139 240l117 -178l-55 -36l-143 214l143 214l55 -36z" />
<glyph unicode="&#x203a;" horiz-adv-x="314" d="M175 240l-117 178l55 36l143 -214l-143 -214l-55 36z" />
<glyph unicode="&#x205f;" horiz-adv-x="232" />
<glyph unicode="&#x2122;" horiz-adv-x="990" d="M194 642h-130v66h326v-66h-130v-346h-66v346zM473 708h105l123 -313l123 313h102v-412h-66v346l-138 -346h-45l-136 346l-2 -346h-66v412z" />
</font>
</defs>
</svg>
